<svg width="110" height="110" viewBox="0 0 110 110" fill="none" xmlns="http://www.w3.org/2000/svg">
<mask id="mask0_455_9369" style="mask-type:luminance" maskUnits="userSpaceOnUse" x="0" y="15" width="110" height="50">
<path fill-rule="evenodd" clip-rule="evenodd" d="M0.00390625 15H110.001V64.995H0.00390625V15Z" fill="white"/>
</mask>
<g mask="url(#mask0_455_9369)">
<path fill-rule="evenodd" clip-rule="evenodd" d="M25.0014 32.4969C26.9333 32.4969 28.6727 33.2463 29.9995 34.4425C31.3333 33.2463 33.0727 32.4969 35.0045 32.4969C39.1433 32.4969 42.4983 35.8519 42.4983 39.9975C42.4983 44.1363 39.1433 47.4981 35.0045 47.4981C33.0727 47.4981 31.3333 46.7488 29.9995 45.5525C28.6727 46.7488 26.9333 47.4981 25.0014 47.4981C20.8627 47.4981 17.5008 44.1363 17.5008 39.9975C17.5008 35.8519 20.8627 32.4969 25.0014 32.4969V32.4969ZM110.004 64.995V24.9963C110.004 19.4825 105.515 15 100.001 15H10.0002C4.48641 15 0.00390625 19.4825 0.00390625 24.9963V64.995H110.004Z" fill="#0071CE"/>
</g>
<path fill-rule="evenodd" clip-rule="evenodd" d="M0 74.9961V84.9992C0 90.5061 4.48938 94.9955 10.0031 94.9955H99.9969C105.511 94.9955 110 90.5061 110 84.9992V74.9961H0Z" fill="#0071CE"/>
</svg>
