<svg width="110" height="110" viewBox="0 0 110 110" fill="none" xmlns="http://www.w3.org/2000/svg">
<path fill-rule="evenodd" clip-rule="evenodd" d="M50.0019 80.0044H60.005V50.0019H50.0019V80.0044ZM55 30.0025C57.7637 30.0025 59.9981 32.2369 59.9981 35.0006C59.9981 37.7644 57.7637 39.9987 55 39.9987C52.2363 39.9987 50.0019 37.7644 50.0019 35.0006C50.0019 32.2369 52.2363 30.0025 55 30.0025ZM55 110C85.3256 110 110 85.3256 110 55C110 24.6744 85.3256 0 55 0C24.6744 0 0 24.6744 0 55C0 85.3256 24.6744 110 55 110Z" fill="#0071CE"/>
</svg>
