<svg width="110" height="110" viewBox="0 0 110 110" fill="none" xmlns="http://www.w3.org/2000/svg">
<path fill-rule="evenodd" clip-rule="evenodd" d="M55 11.0035L10.9172 33.2895L55 55.5754L99.0828 33.2895L55 11.0035ZM55 0C56.6729 0 58.3459 0.383637 59.8808 1.16835L103.964 23.4544C107.654 25.3202 110 29.1392 110 33.3069C110 37.4746 107.672 41.2936 103.964 43.1595L59.8808 65.4455C58.3459 66.2302 56.6729 66.6138 55 66.6138C53.327 66.6138 51.6541 66.2302 50.1192 65.4455L6.03638 43.1595C2.34556 41.2936 0 37.4746 0 33.3069C0 29.1392 2.32832 25.3202 6.03638 23.4544L50.1192 1.16835C51.6541 0.383637 53.327 0 55 0ZM109.448 49.4023V61.7137L57.4318 88.0105C56.6729 88.3941 55.8278 88.5859 55 88.5859C54.1721 88.5859 53.3271 88.3941 52.5682 88.0105L0.551883 61.7137V49.4023L55 76.9372L109.448 49.4023ZM109.448 70.8164V83.1278L57.4318 109.425C56.6729 109.808 55.8278 110 55 110C54.1721 110 53.3271 109.808 52.5682 109.425L0.551883 83.1278V70.8164L55 98.3513L109.448 70.8164Z" fill="#0071CE"/>
</svg>
