<svg width="110" height="110" viewBox="0 0 110 110" fill="none" xmlns="http://www.w3.org/2000/svg">
<path fill-rule="evenodd" clip-rule="evenodd" d="M29.9952 47.8275H79.9976V38.2641H29.9952V47.8275ZM29.9952 66.9544H79.9976V57.3909H29.9952V66.9544ZM29.9952 86.0881H79.9976V76.5247H29.9952V86.0881ZM94.9976 9.56006H74.9952V21.8598C74.9952 24.4999 72.7599 26.645 70 26.645H40C37.2401 26.645 34.9976 24.4999 34.9976 21.8598V9.56006H15.0024C12.2353 9.56006 10 11.6983 10 14.3452V105.215C10 107.862 12.2353 110 15.0024 110H94.9976C97.7647 110 100 107.862 100 105.215V14.3452C100 11.6983 97.7647 9.56006 94.9976 9.56006Z" fill="#0071CE"/>
<path fill-rule="evenodd" clip-rule="evenodd" d="M64.7553 11.6122C64.9063 10.9522 64.9997 10.2647 64.9997 9.56342C64.9997 4.27638 60.522 0 55.0021 0C49.475 0 44.9973 4.27638 44.9973 9.56342C44.9973 10.2647 45.0908 10.9522 45.2417 11.6122H64.7553Z" fill="#0071CE"/>
</svg>
