<svg width="110" height="110" viewBox="0 0 110 110" fill="none" xmlns="http://www.w3.org/2000/svg">
<path fill-rule="evenodd" clip-rule="evenodd" d="M69.8723 39.7782H79.9032V29.7476H69.8723V39.7782Z" fill="#0071CE"/>
<path fill-rule="evenodd" clip-rule="evenodd" d="M29.7419 39.7782H39.7728V29.7476H29.7419V39.7782Z" fill="#0071CE"/>
<path fill-rule="evenodd" clip-rule="evenodd" d="M29.7419 79.901H39.7728V69.8704H29.7419V79.901Z" fill="#0071CE"/>
<mask id="mask0_0_1182" style="mask-type:luminance" maskUnits="userSpaceOnUse" x="0" y="0" width="110" height="110">
<path fill-rule="evenodd" clip-rule="evenodd" d="M0 0H110V110H0V0Z" fill="white"/>
</mask>
<g mask="url(#mask0_0_1182)">
<path fill-rule="evenodd" clip-rule="evenodd" d="M89.9383 44.7909C89.9383 47.5615 87.697 49.8097 84.9194 49.8097H64.8577C62.087 49.8097 59.8388 47.5615 59.8388 44.7909V24.7295C59.8388 21.9589 62.087 19.7107 64.8577 19.7107H84.9194C87.697 19.7107 89.9383 21.9589 89.9383 24.7295V44.7909ZM89.9383 89.4512H79.9074V79.9017H69.8766V90.0012H59.8388V79.8399H69.8078V70.0017H59.8388V59.8404H69.8766V69.8711H84.9194C87.697 69.8711 89.9383 72.1192 89.9383 74.8898V89.4512ZM49.8079 44.7909C49.8079 47.5615 47.5666 49.8097 44.7959 49.8097H24.7273C21.9566 49.8097 19.7153 47.5615 19.7153 44.7909V24.7295C19.7153 21.9589 21.9566 19.7107 24.7273 19.7107H44.7959C47.5666 19.7107 49.8079 21.9589 49.8079 24.7295V44.7909ZM49.8079 84.9205C49.8079 87.6912 47.5666 89.9324 44.7959 89.9324H24.7273C21.9566 89.9324 19.7153 87.6912 19.7153 84.9205V64.8523C19.7153 62.0885 21.9566 59.8404 24.7273 59.8404H44.7959C47.5666 59.8404 49.8079 62.0885 49.8079 64.8523V84.9205ZM99.1304 0H10.0144C4.49368 0 -0.00268555 4.88128 -0.00268555 10.8763V99.9837C-0.00268555 105.504 4.87869 110.001 10.8807 110.001H99.9898C105.511 110.001 110 105.119 110 99.1244V10.0169C110 4.49628 105.126 0 99.1304 0Z" fill="#0071CE"/>
</g>
</svg>
